<svg width="33" height="29" viewBox="0 0 33 29" fill="none" xmlns="http://www.w3.org/2000/svg">
<path d="M30.5 12.5C31.0521 12.5 31.5234 12.6953 31.9141 13.0859C32.3047 13.4766 32.5 13.9479 32.5 14.5C32.5 15.0521 32.3047 15.5234 31.9141 15.9141C31.5234 16.3047 31.0521 16.5 30.5 16.5H30.2656L28.4688 26.8438C28.3854 27.3229 28.1562 27.7188 27.7812 28.0312C27.4062 28.3438 26.9792 28.5 26.5 28.5H6.5C6.02083 28.5 5.59375 28.3438 5.21875 28.0312C4.84375 27.7188 4.61458 27.3229 4.53125 26.8438L2.73438 16.5H2.5C1.94792 16.5 1.47656 16.3047 1.08594 15.9141C0.695312 15.5234 0.5 15.0521 0.5 14.5C0.5 13.9479 0.695312 13.4766 1.08594 13.0859C1.47656 12.6953 1.94792 12.5 2.5 12.5H30.5ZM8.07812 25C8.34896 24.9792 8.57552 24.862 8.75781 24.6484C8.9401 24.4349 9.02083 24.1927 9 23.9219L8.5 17.4219C8.47917 17.151 8.36198 16.9245 8.14844 16.7422C7.9349 16.5599 7.69271 16.4792 7.42188 16.5C7.15104 16.5208 6.92448 16.638 6.74219 16.8516C6.5599 17.0651 6.47917 17.3073 6.5 17.5781L7 24.0781C7.02083 24.3385 7.1276 24.5573 7.32031 24.7344C7.51302 24.9115 7.73958 25 8 25H8.07812ZM14.5 24V17.5C14.5 17.2292 14.401 16.9948 14.2031 16.7969C14.0052 16.599 13.7708 16.5 13.5 16.5C13.2292 16.5 12.9948 16.599 12.7969 16.7969C12.599 16.9948 12.5 17.2292 12.5 17.5V24C12.5 24.2708 12.599 24.5052 12.7969 24.7031C12.9948 24.901 13.2292 25 13.5 25C13.7708 25 14.0052 24.901 14.2031 24.7031C14.401 24.5052 14.5 24.2708 14.5 24ZM20.5 24V17.5C20.5 17.2292 20.401 16.9948 20.2031 16.7969C20.0052 16.599 19.7708 16.5 19.5 16.5C19.2292 16.5 18.9948 16.599 18.7969 16.7969C18.599 16.9948 18.5 17.2292 18.5 17.5V24C18.5 24.2708 18.599 24.5052 18.7969 24.7031C18.9948 24.901 19.2292 25 19.5 25C19.7708 25 20.0052 24.901 20.2031 24.7031C20.401 24.5052 20.5 24.2708 20.5 24ZM26 24.0781L26.5 17.5781C26.5208 17.3073 26.4401 17.0651 26.2578 16.8516C26.0755 16.638 25.849 16.5208 25.5781 16.5C25.3073 16.4792 25.0651 16.5599 24.8516 16.7422C24.638 16.9245 24.5208 17.151 24.5 17.4219L24 23.9219C23.9792 24.1927 24.0599 24.4349 24.2422 24.6484C24.4245 24.862 24.651 24.9792 24.9219 25H25C25.2604 25 25.487 24.9115 25.6797 24.7344C25.8724 24.5573 25.9792 24.3385 26 24.0781ZM7.9375 5.0625L6.48438 11.5H4.42188L6 4.60938C6.19792 3.69271 6.66146 2.94531 7.39062 2.36719C8.11979 1.78906 8.95312 1.5 9.89062 1.5H12.5C12.5 1.22917 12.599 0.994792 12.7969 0.796875C12.9948 0.598958 13.2292 0.5 13.5 0.5H19.5C19.7708 0.5 20.0052 0.598958 20.2031 0.796875C20.401 0.994792 20.5 1.22917 20.5 1.5H23.1094C24.0469 1.5 24.8802 1.78906 25.6094 2.36719C26.3385 2.94531 26.8021 3.69271 27 4.60938L28.5781 11.5H26.5156L25.0625 5.0625C24.9479 4.60417 24.7109 4.22917 24.3516 3.9375C23.9922 3.64583 23.5781 3.5 23.1094 3.5H20.5C20.5 3.77083 20.401 4.00521 20.2031 4.20312C20.0052 4.40104 19.7708 4.5 19.5 4.5H13.5C13.2292 4.5 12.9948 4.40104 12.7969 4.20312C12.599 4.00521 12.5 3.77083 12.5 3.5H9.89062C9.42188 3.5 9.00781 3.64583 8.64844 3.9375C8.28906 4.22917 8.05208 4.60417 7.9375 5.0625Z" fill="white"/>
</svg>
