<svg width="10" height="10" viewBox="0 0 10 10" fill="none" xmlns="http://www.w3.org/2000/svg">
<path d="M6.24741 5.00153L9.73899 1.50995C9.9047 1.34453 9.99791 1.12006 9.99812 0.885919C9.99832 0.651777 9.90551 0.427142 9.74009 0.261433C9.57468 0.0957232 9.35021 0.00251247 9.11606 0.00230569C8.88192 0.00209891 8.65729 0.0949131 8.49158 0.26033L5 3.75191L1.50842 0.26033C1.34271 0.0946207 1.11796 0.00152588 0.883613 0.00152588C0.649264 0.00152588 0.424514 0.0946207 0.258804 0.26033C0.0930948 0.42604 0 0.65079 0 0.885139C0 1.11949 0.0930948 1.34424 0.258804 1.50995L3.75038 5.00153L0.258804 8.4931C0.0930948 8.65881 0 8.88356 0 9.11791C0 9.35226 0.0930948 9.57701 0.258804 9.74272C0.424514 9.90843 0.649264 10.0015 0.883613 10.0015C1.11796 10.0015 1.34271 9.90843 1.50842 9.74272L5 6.25114L8.49158 9.74272C8.65729 9.90843 8.88204 10.0015 9.11639 10.0015C9.35074 10.0015 9.57549 9.90843 9.7412 9.74272C9.90691 9.57701 10 9.35226 10 9.11791C10 8.88356 9.90691 8.65881 9.7412 8.4931L6.24741 5.00153Z" fill="black" fill-opacity="0.3"/>
</svg>
