<svg width="26" height="26" viewBox="0 0 26 26" fill="none" xmlns="http://www.w3.org/2000/svg">
<path d="M23.5171 16.1068C23.1732 16.1068 22.8945 16.3855 22.8945 16.7294V22.2577C22.8933 23.2889 22.0578 24.1246 21.0266 24.1256H3.55626C2.52503 24.1246 1.68959 23.2889 1.68837 22.2577V6.03258C1.68959 5.00159 2.52503 4.16591 3.55626 4.16469H9.08453C9.42844 4.16469 9.70716 3.88597 9.70716 3.54206C9.70716 3.1984 9.42844 2.91943 9.08453 2.91943H3.55626C1.83771 2.92138 0.445061 4.31403 0.443115 6.03258V22.2579C0.445061 23.9765 1.83771 25.3691 3.55626 25.3711H21.0266C22.7452 25.3691 24.1378 23.9765 24.1398 22.2579V16.7294C24.1398 16.3855 23.861 16.1068 23.5171 16.1068Z" fill="#E31E24"/>
<path d="M23.8933 1.31725C22.799 0.223026 21.025 0.223026 19.9308 1.31725L8.8227 12.4253C8.74658 12.5015 8.69161 12.5958 8.66291 12.6994L7.20216 17.9731C7.14209 18.1893 7.20314 18.4208 7.36171 18.5796C7.52053 18.7382 7.75207 18.7993 7.96829 18.7394L13.2419 17.2785C13.3455 17.2498 13.4399 17.1948 13.516 17.1187L24.6239 6.01032C25.7164 4.91537 25.7164 3.14282 24.6239 2.04787L23.8933 1.31725ZM10.1794 12.8301L19.2705 3.73869L22.2024 6.67065L13.1111 15.762L10.1794 12.8301ZM9.59369 14.0053L11.9361 16.3479L8.69599 17.2456L9.59369 14.0053ZM23.7434 5.12988L23.0831 5.79021L20.1509 2.85801L20.8115 2.19769C21.4193 1.58989 22.4048 1.58989 23.0126 2.19769L23.7434 2.9283C24.3503 3.53683 24.3503 4.5216 23.7434 5.12988Z" fill="#E31E24"/>
</svg>
