<svg width="25" height="25" viewBox="0 0 25 25" fill="none" xmlns="http://www.w3.org/2000/svg">
<path d="M12.5566 2C6.7582 2 2.05664 6.70156 2.05664 12.5C2.05664 18.2984 6.7582 23 12.5566 23C18.3551 23 23.0566 18.2984 23.0566 12.5C23.0566 6.70156 18.3551 2 12.5566 2ZM12.5566 21.2188C7.74258 21.2188 3.83789 17.3141 3.83789 12.5C3.83789 7.68594 7.74258 3.78125 12.5566 3.78125C17.3707 3.78125 21.2754 7.68594 21.2754 12.5C21.2754 17.3141 17.3707 21.2188 12.5566 21.2188Z" fill="black"/>
<path d="M11.4316 8.375C11.4316 8.67337 11.5502 8.95952 11.7611 9.1705C11.9721 9.38147 12.2583 9.5 12.5566 9.5C12.855 9.5 13.1412 9.38147 13.3521 9.1705C13.5631 8.95952 13.6816 8.67337 13.6816 8.375C13.6816 8.07663 13.5631 7.79048 13.3521 7.5795C13.1412 7.36853 12.855 7.25 12.5566 7.25C12.2583 7.25 11.9721 7.36853 11.7611 7.5795C11.5502 7.79048 11.4316 8.07663 11.4316 8.375ZM13.1191 11H11.9941C11.891 11 11.8066 11.0844 11.8066 11.1875V17.5625C11.8066 17.6656 11.891 17.75 11.9941 17.75H13.1191C13.2223 17.75 13.3066 17.6656 13.3066 17.5625V11.1875C13.3066 11.0844 13.2223 11 13.1191 11Z" fill="black"/>
</svg>
