<svg width="30" height="30" viewBox="0 0 30 30" fill="none" xmlns="http://www.w3.org/2000/svg">
<circle cx="15" cy="15" r="14" fill="white" stroke="#E31E24" stroke-width="2"/>
<path d="M18.6195 5.99004C18.5034 5.87363 18.3655 5.78127 18.2136 5.71826C18.0617 5.65524 17.8989 5.6228 17.7345 5.6228C17.5701 5.6228 17.4073 5.65524 17.2554 5.71826C17.1036 5.78127 16.9656 5.87363 16.8495 5.99004L8.53951 14.3C8.44681 14.3926 8.37326 14.5024 8.32308 14.6234C8.2729 14.7444 8.24707 14.8741 8.24707 15.005C8.24707 15.136 8.2729 15.2657 8.32308 15.3867C8.37326 15.5076 8.44681 15.6175 8.53951 15.71L16.8495 24.02C17.3395 24.51 18.1295 24.51 18.6195 24.02C19.1095 23.53 19.1095 22.74 18.6195 22.25L11.3795 15L18.6295 7.75004C19.1095 7.27004 19.1095 6.47004 18.6195 5.99004Z" fill="#E31E24"/>
</svg>
