<svg width="26" height="26" viewBox="0 0 26 26" fill="none" xmlns="http://www.w3.org/2000/svg">
<path opacity="0.3" d="M21.6505 5.08984H16.963V3.91797C16.963 3.39997 16.7572 2.90318 16.391 2.5369C16.0247 2.17062 15.5279 1.96484 15.0099 1.96484H11.1036C10.5856 1.96484 10.0889 2.17062 9.72257 2.5369C9.35629 2.90318 9.15051 3.39997 9.15051 3.91797V5.08984H4.46301C4.25581 5.08984 4.0571 5.17215 3.91059 5.31867C3.76407 5.46518 3.68176 5.66389 3.68176 5.87109C3.68176 6.07829 3.76407 6.27701 3.91059 6.42352C4.0571 6.57003 4.25581 6.65234 4.46301 6.65234H5.29309L6.22083 21.541C6.29016 22.8521 7.29504 23.8398 8.56458 23.8398H17.549C18.8248 23.8398 19.8097 22.874 19.8927 21.5449L20.8204 6.65234H21.6505C21.8577 6.65234 22.0564 6.57003 22.2029 6.42352C22.3495 6.27701 22.4318 6.07829 22.4318 5.87109C22.4318 5.66389 22.3495 5.46518 22.2029 5.31867C22.0564 5.17215 21.8577 5.08984 21.6505 5.08984ZM9.9596 20.7148H9.93176C9.7293 20.715 9.53469 20.6365 9.38895 20.4959C9.24321 20.3554 9.15773 20.1638 9.15051 19.9614L8.75989 9.02393C8.75251 8.81673 8.82774 8.61508 8.96903 8.46335C9.11032 8.31161 9.30611 8.22223 9.51331 8.21484C9.72051 8.20746 9.92215 8.28269 10.0739 8.42399C10.2256 8.56528 10.315 8.76106 10.3224 8.96826L10.713 19.9058C10.7167 20.0084 10.7002 20.1107 10.6643 20.2069C10.6285 20.3031 10.574 20.3913 10.504 20.4665C10.434 20.5416 10.3499 20.6022 10.2565 20.6449C10.1631 20.6875 10.0622 20.7113 9.9596 20.7148ZM13.838 19.9336C13.838 20.1408 13.7557 20.3395 13.6092 20.486C13.4627 20.6325 13.264 20.7148 13.0568 20.7148C12.8496 20.7148 12.6508 20.6325 12.5043 20.486C12.3578 20.3395 12.2755 20.1408 12.2755 19.9336V8.99609C12.2755 8.78889 12.3578 8.59018 12.5043 8.44367C12.6508 8.29715 12.8496 8.21484 13.0568 8.21484C13.264 8.21484 13.4627 8.29715 13.6092 8.44367C13.7557 8.59018 13.838 8.78889 13.838 8.99609V19.9336ZM15.4005 5.08984H10.713V3.91797C10.7124 3.86651 10.7221 3.81545 10.7415 3.76779C10.761 3.72013 10.7897 3.67683 10.8261 3.64044C10.8625 3.60405 10.9058 3.5753 10.9535 3.55588C11.0011 3.53646 11.0522 3.52675 11.1036 3.52734H15.0099C15.0613 3.52675 15.1124 3.53646 15.1601 3.55588C15.2077 3.5753 15.251 3.60405 15.2874 3.64044C15.3238 3.67683 15.3526 3.72013 15.372 3.76779C15.3914 3.81545 15.4011 3.86651 15.4005 3.91797V5.08984ZM16.963 19.9614C16.9558 20.1638 16.8703 20.3554 16.7246 20.4959C16.5788 20.6365 16.3842 20.715 16.1818 20.7148H16.1534C16.0509 20.7112 15.95 20.6874 15.8567 20.6447C15.7633 20.6021 15.6793 20.5415 15.6093 20.4663C15.5394 20.3912 15.485 20.303 15.4491 20.2068C15.4133 20.1106 15.3968 20.0083 15.4005 19.9058L15.7911 8.96826C15.7948 8.86567 15.8186 8.7648 15.8613 8.67141C15.9039 8.57802 15.9645 8.49395 16.0396 8.42399C16.1148 8.35402 16.2029 8.29955 16.2991 8.26366C16.3953 8.22778 16.4976 8.21119 16.6002 8.21484C16.7028 8.2185 16.8037 8.24233 16.8971 8.28496C16.9905 8.3276 17.0745 8.38822 17.1445 8.46335C17.2145 8.53848 17.2689 8.62665 17.3048 8.72284C17.3407 8.81902 17.3573 8.92133 17.3536 9.02393L16.963 19.9614Z" fill="black"/>
</svg>
